<svg width="400" height="560" viewBox="0 0 400 560" fill="none" xmlns="http://www.w3.org/2000/svg">
  <rect width="400" height="560" fill="white"/>
  
  <rect width="140" height="560" fill="#1E293B"/>
  
  <circle cx="70" cy="60" r="30" fill="#334155"/>
  
  <text x="20" y="115" font-family="Arial, sans-serif" font-size="10" font-weight="bold" fill="white">SEU NOME</text>
  <text x="20" y="128" font-family="Arial, sans-serif" font-size="6" fill="#94A3B8" text-transform="uppercase">CARGO</text>
  
  <text x="20" y="160" font-family="Arial, sans-serif" font-size="6" font-weight="bold" fill="#60A5FA" text-transform="uppercase">CONTATO</text>
  <rect x="20" y="170" width="100" height="2" fill="#334155"/>
  <rect x="20" y="176" width="100" height="2" fill="#334155"/>
  <rect x="20" y="182" width="100" height="2" fill="#334155"/>

  <text x="20" y="210" font-family="Arial, sans-serif" font-size="6" font-weight="bold" fill="#60A5FA" text-transform="uppercase">SKILLS</text>
  <rect x="20" y="220" width="40" height="6" rx="2" fill="#334155"/>
  <rect x="65" y="220" width="40" height="6" rx="2" fill="#334155"/>
  <rect x="20" y="230" width="50" height="6" rx="2" fill="#334155"/>

  <text x="160" y="55" font-family="Arial, sans-serif" font-size="8" font-weight="bold" fill="#1E40AF" text-transform="uppercase">SUMMARY</text>
  <line x1="160" y1="60" x2="380" y2="60" stroke="#1E40AF" stroke-width="1.5"/>
  <rect x="160" y="70" width="220" height="3" fill="#F1F5F9"/>
  <rect x="160" y="78" width="200" height="3" fill="#F1F5F9"/>

  <text x="160" y="110" font-family="Arial, sans-serif" font-size="8" font-weight="bold" fill="#1E40AF" text-transform="uppercase">EXPERIENCE</text>
  <line x1="160" y1="115" x2="380" y2="115" stroke="#1E40AF" stroke-width="1.5"/>
  
  <text x="160" y="130" font-family="Arial, sans-serif" font-size="7" font-weight="bold" fill="#0F172A">Senior Designer</text>
  <text x="380" y="130" font-family="Arial, sans-serif" font-size="6" text-anchor="end" fill="#64748B">2021 – Pres.</text>
  <text x="160" y="138" font-family="Arial, sans-serif" font-size="6" fill="#1E40AF">Company Name</text>
  <rect x="160" y="146" width="210" height="3" fill="#F1F5F9"/>
  <rect x="160" y="152" width="190" height="3" fill="#F1F5F9"/>
</svg>
